<svg xmlns="http://www.w3.org/2000/svg" viewBox="0 -0.5 180 40" shape-rendering="crispEdges">
<metadata>Made with Pixels to Svg https://codepen.io/shshaw/pen/XbxvNj</metadata>
<path stroke="#000000" d="M10 0h160M10 1h160M10 2h160M10 3h160M10 4h160M5 5h5M170 5h5M5 6h5M170 6h5M5 7h5M170 7h5M5 8h5M170 8h5M5 9h5M170 9h5M0 10h5M10 10h160M175 10h5M0 11h5M10 11h160M175 11h5M0 12h5M10 12h160M175 12h5M0 13h5M10 13h160M175 13h5M0 14h5M10 14h160M175 14h5M0 15h5M10 15h5M165 15h5M175 15h5M0 16h5M10 16h5M165 16h5M175 16h5M0 17h5M10 17h5M165 17h5M175 17h5M0 18h5M10 18h5M165 18h5M175 18h5M0 19h5M10 19h5M165 19h5M175 19h5M0 20h5M10 20h5M165 20h5M175 20h5M0 21h5M10 21h5M165 21h5M175 21h5M0 22h5M10 22h5M165 22h5M175 22h5M0 23h5M10 23h5M165 23h5M175 23h5M0 24h5M10 24h5M165 24h5M175 24h5M0 25h5M10 25h160M175 25h5M0 26h5M10 26h160M175 26h5M0 27h5M10 27h160M175 27h5M0 28h5M10 28h160M175 28h5M0 29h5M10 29h160M175 29h5M5 30h5M170 30h5M5 31h5M170 31h5M5 32h5M170 32h5M5 33h5M170 33h5M5 34h5M170 34h5M10 35h160M10 36h160M10 37h160M10 38h160M10 39h160" />
<path stroke="#979494" d="M10 5h160M10 6h160M10 7h160M10 8h160M10 9h160M5 10h5M170 10h5M5 11h5M170 11h5M5 12h5M170 12h5M5 13h5M170 13h5M5 14h5M170 14h5M5 15h5M170 15h5M5 16h5M170 16h5M5 17h5M170 17h5M5 18h5M170 18h5M5 19h5M170 19h5M5 20h5M170 20h5M5 21h5M170 21h5M5 22h5M170 22h5M5 23h5M170 23h5M5 24h5M170 24h5M5 25h5M170 25h5M5 26h5M170 26h5M5 27h5M170 27h5M5 28h5M170 28h5M5 29h5M170 29h5M10 30h160M10 31h160M10 32h160M10 33h160M10 34h160" />
<path stroke="#dedbdb" d="M15 15h150M15 16h150M15 17h150M15 18h150M15 19h150M15 20h150M15 21h150M15 22h150M15 23h150M15 24h150" />
</svg>