<svg xmlns="http://www.w3.org/2000/svg" viewBox="0 -0.5 60 90" shape-rendering="crispEdges">
<metadata>Made with Pixels to Svg https://codepen.io/shshaw/pen/XbxvNj</metadata>
<path stroke="#000000" d="M25 0h10M25 1h10M25 2h10M25 3h10M25 4h10M20 5h5M35 5h5M20 6h5M35 6h5M20 7h5M35 7h5M20 8h5M35 8h5M20 9h5M35 9h5M15 10h30M15 11h30M15 12h30M15 13h30M15 14h30M10 15h5M45 15h5M10 16h5M45 16h5M10 17h5M45 17h5M10 18h5M45 18h5M10 19h5M45 19h5M15 20h30M15 21h30M15 22h30M15 23h30M15 24h30M20 25h5M35 25h5M20 26h5M35 26h5M20 27h5M35 27h5M20 28h5M35 28h5M20 29h5M35 29h5M20 30h5M35 30h5M20 31h5M35 31h5M20 32h5M35 32h5M20 33h5M35 33h5M20 34h5M35 34h5M20 35h5M35 35h5M20 36h5M35 36h5M20 37h5M35 37h5M20 38h5M35 38h5M20 39h5M35 39h5M20 40h5M35 40h5M20 41h5M35 41h5M20 42h5M35 42h5M20 43h5M35 43h5M20 44h5M35 44h5M10 45h10M40 45h10M10 46h10M40 46h10M10 47h10M40 47h10M10 48h10M40 48h10M10 49h10M40 49h10M5 50h5M50 50h5M5 51h5M50 51h5M5 52h5M50 52h5M5 53h5M50 53h5M5 54h5M50 54h5M0 55h5M55 55h5M0 56h5M55 56h5M0 57h5M55 57h5M0 58h5M55 58h5M0 59h5M55 59h5M0 60h5M55 60h5M0 61h5M55 61h5M0 62h5M55 62h5M0 63h5M55 63h5M0 64h5M55 64h5M0 65h5M55 65h5M0 66h5M55 66h5M0 67h5M55 67h5M0 68h5M55 68h5M0 69h5M55 69h5M5 70h5M50 70h5M5 71h5M50 71h5M5 72h5M50 72h5M5 73h5M50 73h5M5 74h5M50 74h5M5 75h5M50 75h5M5 76h5M50 76h5M5 77h5M50 77h5M5 78h5M50 78h5M5 79h5M50 79h5M10 80h5M45 80h5M10 81h5M45 81h5M10 82h5M45 82h5M10 83h5M45 83h5M10 84h5M45 84h5M15 85h30M15 86h30M15 87h30M15 88h30M15 89h30" />
<path stroke="#83694f" d="M25 5h10M25 6h10M25 7h10M25 8h10M25 9h10" />
<path stroke="#005a41" d="M15 15h30M15 16h30M15 17h30M15 18h30M15 19h30" />
<path stroke="#52a699" d="M25 25h5M25 26h5M25 27h5M25 28h5M25 29h5M25 30h5M25 31h5M25 32h5M25 33h5M25 34h5M25 35h5M25 36h5M25 37h5M25 38h5M25 39h5M25 40h5M25 41h5M25 42h5M25 43h5M25 44h5M20 45h5M30 45h10M20 46h5M30 46h10M20 47h5M30 47h10M20 48h5M30 48h10M20 49h5M30 49h10M10 50h10M25 50h25M10 51h10M25 51h25M10 52h10M25 52h25M10 53h10M25 53h25M10 54h10M25 54h25" />
<path stroke="#e9ebea" d="M30 25h5M30 26h5M30 27h5M30 28h5M30 29h5M30 30h5M30 31h5M30 32h5M30 33h5M30 34h5M30 35h5M30 36h5M30 37h5M30 38h5M30 39h5M30 40h5M30 41h5M30 42h5M30 43h5M30 44h5M25 45h5M25 46h5M25 47h5M25 48h5M25 49h5M20 50h5M20 51h5M20 52h5M20 53h5M20 54h5M15 55h5M15 56h5M15 57h5M15 58h5M15 59h5M15 60h5M15 61h5M15 62h5M15 63h5M15 64h5M15 65h5M15 66h5M15 67h5M15 68h5M15 69h5M15 70h5M15 71h5M15 72h5M15 73h5M15 74h5M20 75h5M20 76h5M20 77h5M20 78h5M20 79h5" />
<path stroke="#83c2a0" d="M5 55h10M20 55h35M5 56h10M20 56h35M5 57h10M20 57h35M5 58h10M20 58h35M5 59h10M20 59h35" />
<path stroke="#5ea35a" d="M5 60h5M20 60h35M5 61h5M20 61h35M5 62h5M20 62h35M5 63h5M20 63h35M5 64h5M20 64h35M5 65h5M20 65h10M35 65h10M50 65h5M5 66h5M20 66h10M35 66h10M50 66h5M5 67h5M20 67h10M35 67h10M50 67h5M5 68h5M20 68h10M35 68h10M50 68h5M5 69h5M20 69h10M35 69h10M50 69h5M10 70h5M20 70h5M30 70h10M45 70h5M10 71h5M20 71h5M30 71h10M45 71h5M10 72h5M20 72h5M30 72h10M45 72h5M10 73h5M20 73h5M30 73h10M45 73h5M10 74h5M20 74h5M30 74h10M45 74h5M10 75h10M25 75h25M10 76h10M25 76h25M10 77h10M25 77h25M10 78h10M25 78h25M10 79h10M25 79h25M15 80h10M30 80h5M40 80h5M15 81h10M30 81h5M40 81h5M15 82h10M30 82h5M40 82h5M15 83h10M30 83h5M40 83h5M15 84h10M30 84h5M40 84h5" />
<path stroke="#5a9f6e" d="M10 60h5M10 61h5M10 62h5M10 63h5M10 64h5" />
<path stroke="#86ebb7" d="M10 65h5M30 65h5M45 65h5M10 66h5M30 66h5M45 66h5M10 67h5M30 67h5M45 67h5M10 68h5M30 68h5M45 68h5M10 69h5M30 69h5M45 69h5M25 70h5M40 70h5M25 71h5M40 71h5M25 72h5M40 72h5M25 73h5M40 73h5M25 74h5M40 74h5M25 80h5M35 80h5M25 81h5M35 81h5M25 82h5M35 82h5M25 83h5M35 83h5M25 84h5M35 84h5" />
</svg>