<svg height="512pt" viewBox="-53 0 512 512" width="512pt" xmlns="http://www.w3.org/2000/svg"><path d="m340.265625 23.320312v41.132813l41.261719.125zm0 0"/><path d="m325.046875 94.75c-8.359375-.023438-15.125-6.808594-15.125-15.171875v-79.578125h-294.75c-8.378906 0-15.171875 6.792969-15.171875 15.171875v481.65625c0 8.378906 6.792969 15.171875 15.171875 15.171875h374.726563c8.378906 0 15.171874-6.792969 15.171874-15.171875v-401.832031zm-225.582031 43.125h103.070312c8.378906 0 15.171875 6.792969 15.171875 15.171875s-6.792969 15.171875-15.171875 15.171875h-103.070312c-8.378906 0-15.171875-6.792969-15.171875-15.171875s6.792969-15.171875 15.171875-15.171875zm189.636718 209.957031h-189.636718c-8.378906 0-15.171875-6.792969-15.171875-15.171875s6.792969-15.171875 15.171875-15.171875h189.636718c8.378907 0 15.171876 6.792969 15.171876 15.171875s-6.792969 15.171875-15.171876 15.171875zm0-59.464843h-189.636718c-8.378906 0-15.171875-6.792969-15.171875-15.171876 0-8.378906 6.792969-15.171874 15.171875-15.171874h189.636718c8.378907 0 15.171876 6.792968 15.171876 15.171874 0 8.378907-6.792969 15.171876-15.171876 15.171876zm0-60.472657h-189.636718c-8.378906 0-15.171875-6.792969-15.171875-15.171875s6.792969-15.171875 15.171875-15.171875h189.636718c8.378907 0 15.171876 6.792969 15.171876 15.171875s-6.792969 15.171875-15.171876 15.171875zm0 0"/></svg>