<?xml version="1.0" encoding="iso-8859-1"?>
<!-- Generator: Adobe Illustrator 19.0.0, SVG Export Plug-In . SVG Version: 6.00 Build 0)  -->
<svg version="1.1" id="Capa_1" xmlns="http://www.w3.org/2000/svg" xmlns:xlink="http://www.w3.org/1999/xlink" x="0px" y="0px"
	 viewBox="0 0 512 512" style="enable-background:new 0 0 512 512;" xml:space="preserve">
<g>
	<g>
		<path d="M184.894,57.461v144.388h32.068c26.488,0,48.038,21.55,48.038,48.037c0,9.946,8.092,18.038,18.038,18.038H310V89.52
			L184.894,57.461z"/>
	</g>
</g>
<g>
	<g>
		<path d="M283.038,297.924c-26.488,0-48.038-21.55-48.038-48.038c0-9.945-8.092-18.037-18.038-18.037h-32.068v190.433L310,454.341
			V297.924H283.038z"/>
	</g>
</g>
<g>
	<g>
		<polygon points="340,89.479 340,267.924 391.12,267.924 379.484,256.289 400.697,235.076 427.545,261.924 454.394,235.076 
			475.606,256.289 448.758,283.136 475.606,309.984 454.394,331.198 427.545,304.349 400.697,331.198 379.484,309.984 
			391.545,297.924 340,297.924 340,454.099 512,414.922 512,50.302 		"/>
	</g>
</g>
<g>
	<g>
		<path d="M77.166,203.016c-7.627,0-13.833,6.206-13.833,13.834c0,7.628,6.206,13.833,13.833,13.833
			c7.628,0,13.834-6.205,13.834-13.833C91,209.221,84.794,203.016,77.166,203.016z"/>
	</g>
</g>
<g>
	<g>
		<path d="M77.167,173.016c18.904,0,35.049,12.029,41.188,28.834h36.539V57.443L0,96.888v364.81l154.894-39.446V231.849h-36.539
			c-6.139,16.805-22.285,28.833-41.188,28.833c-24.169,0-43.833-19.663-43.833-43.833C33.334,192.68,52.998,173.016,77.167,173.016z
			"/>
	</g>
</g>
<g>
</g>
<g>
</g>
<g>
</g>
<g>
</g>
<g>
</g>
<g>
</g>
<g>
</g>
<g>
</g>
<g>
</g>
<g>
</g>
<g>
</g>
<g>
</g>
<g>
</g>
<g>
</g>
<g>
</g>
</svg>
