<svg id="Layer_1" enable-background="new 0 0 507.973 507.973" height="512" viewBox="0 0 507.973 507.973" width="512" xmlns="http://www.w3.org/2000/svg"><g id="XMLID_307_"><path id="XMLID_315_" d="m178.986 342.973h150v75h-150z"/><path id="XMLID_817_" d="m253.986 57.973c-90.981 0-165 74.02-165 165v225c0 33.084 26.916 60 60 60h210c33.084 0 60-26.916 60-60v-225c0-90.981-74.018-165-165-165zm-90 135h180v30h-30v30h-30v-30h-120zm195 255h-210v-135h210z"/><path id="XMLID_844_" d="m408.04 29.189-85.135-29.189-12.452 36.32c30.085 9.119 57.113 25.325 79.141 46.67z"/><path id="XMLID_847_" d="m197.52 36.32-12.453-36.32-85.135 29.189 18.446 53.801c22.028-21.344 49.057-37.551 79.142-46.67z"/></g></svg>