<?xml version="1.0" encoding="iso-8859-1"?>
<!-- Generator: Adobe Illustrator 19.0.0, SVG Export Plug-In . SVG Version: 6.00 Build 0)  -->
<svg version="1.1" id="Capa_1" xmlns="http://www.w3.org/2000/svg" xmlns:xlink="http://www.w3.org/1999/xlink" x="0px" y="0px"
	 viewBox="0 0 512 512" style="enable-background:new 0 0 512 512;" xml:space="preserve">
<g>
	<g>
		<path d="M186.1,304.042c35.01,56.89,69.9,104.01,69.9,104.01s34.89-47.119,69.9-104.01H186.1z"/>
	</g>
</g>
<g>
	<g>
		<path d="M256,82.56c-30.68,0-55.63,24.96-55.63,55.63c0,30.68,24.95,55.63,55.63,55.63s55.63-24.95,55.63-55.63
			C311.63,107.52,286.68,82.56,256,82.56z"/>
	</g>
</g>
<g>
	<g>
		<path d="M256,0c-77.64,0-140.57,62.94-140.57,140.57c0,38.96,35.4,106.18,70.67,163.47c35.01,56.89,69.9,104.01,69.9,104.01
			s34.89-47.12,69.9-104.01c35.27-57.29,70.67-124.51,70.67-163.47C396.57,62.94,333.64,0,256,0z M256,223.82
			c-47.22,0-85.63-38.41-85.63-85.63c0-47.22,38.41-85.63,85.63-85.63c47.22,0,85.63,38.41,85.63,85.63
			C341.63,185.41,303.22,223.82,256,223.82z"/>
	</g>
</g>
<g>
	<g>
		<path d="M429.3,304.04h-68.31c-2.95,4.94-6,9.97-9.15,15.1c-35.41,57.6-70.26,104.78-71.73,106.76L256,458.46l-24.11-32.56
			c-1.47-1.98-36.32-49.16-71.73-106.76c-3.15-5.13-6.2-10.16-9.15-15.1H82.7L41.21,512h429.58L429.3,304.04z"/>
	</g>
</g>
<g>
</g>
<g>
</g>
<g>
</g>
<g>
</g>
<g>
</g>
<g>
</g>
<g>
</g>
<g>
</g>
<g>
</g>
<g>
</g>
<g>
</g>
<g>
</g>
<g>
</g>
<g>
</g>
<g>
</g>
</svg>
